<svg width="96" height="28" viewBox="0 0 96 28" fill="none" xmlns="http://www.w3.org/2000/svg">
<path d="M13.172 27.444C6.327 27.444 0.851 25.557 0.851 21.45C0.851 21.006 0.925 20.525 1.073 20.007L1.517 18.379H11.174L11.026 18.934C10.989 19.119 10.952 19.304 10.952 19.452C10.952 20.784 12.469 21.709 14.726 21.709C17.538 21.709 19.092 20.747 19.573 19.415L19.684 19.119C19.869 18.675 19.943 18.305 19.943 18.009C19.943 17.195 19.018 16.936 17.575 16.899L11.692 16.714C5.735 16.529 3.256 15.53 3.256 12.533C3.256 11.904 3.367 11.201 3.589 10.387L4.107 8.463C5.624 2.802 12.987 0.471 20.128 0.471C26.973 0.471 32.449 2.358 32.449 6.465C32.449 6.909 32.375 7.39 32.227 7.908L31.783 9.536H22.126L22.274 8.981C22.348 8.722 22.385 8.463 22.385 8.241C22.385 6.872 21.127 6.206 18.574 6.206C15.984 6.206 14.171 7.094 13.727 8.5L13.579 8.981C13.468 9.314 13.431 9.61 13.431 9.869C13.431 10.905 14.319 11.164 15.725 11.201L21.682 11.386C27.676 11.571 30.081 12.644 30.081 15.382C30.081 16.048 29.97 16.751 29.748 17.565L29.23 19.452C27.676 25.113 20.313 27.444 13.172 27.444ZM44.6498 27.444C36.9538 27.444 32.6248 25.742 32.6248 21.191C32.6248 20.451 32.7358 19.637 32.9948 18.712L37.6938 1.1H47.3508L43.2438 16.529C42.9478 17.639 42.7628 18.564 42.7628 19.304C42.7628 21.006 43.7248 21.709 46.1668 21.709C49.6448 21.709 50.9398 20.303 51.9388 16.529L56.0458 1.1H65.6658L60.9668 18.712C59.2648 25.113 53.6408 27.444 44.6498 27.444ZM76.4406 27.444C69.5956 27.444 64.1196 25.557 64.1196 21.45C64.1196 21.006 64.1936 20.525 64.3416 20.007L64.7856 18.379H74.4426L74.2946 18.934C74.2576 19.119 74.2206 19.304 74.2206 19.452C74.2206 20.784 75.7376 21.709 77.9946 21.709C80.8066 21.709 82.3606 20.747 82.8416 19.415L82.9526 19.119C83.1376 18.675 83.2116 18.305 83.2116 18.009C83.2116 17.195 82.2866 16.936 80.8436 16.899L74.9606 16.714C69.0036 16.529 66.5246 15.53 66.5246 12.533C66.5246 11.904 66.6356 11.201 66.8576 10.387L67.3756 8.463C68.8926 2.802 76.2556 0.471 83.3966 0.471C90.2416 0.471 95.7176 2.358 95.7176 6.465C95.7176 6.909 95.6436 7.39 95.4956 7.908L95.0516 9.536H85.3946L85.5426 8.981C85.6166 8.722 85.6536 8.463 85.6536 8.241C85.6536 6.872 84.3956 6.206 81.8426 6.206C79.2526 6.206 77.4396 7.094 76.9956 8.5L76.8476 8.981C76.7366 9.314 76.6996 9.61 76.6996 9.869C76.6996 10.905 77.5876 11.164 78.9936 11.201L84.9506 11.386C90.9446 11.571 93.3496 12.644 93.3496 15.382C93.3496 16.048 93.2386 16.751 93.0166 17.565L92.4986 19.452C90.9446 25.113 83.5816 27.444 76.4406 27.444Z" fill="#242424"/>
</svg>
