<svg width="33" height="28" viewBox="0 0 33 28" fill="none" xmlns="http://www.w3.org/2000/svg">
<path d="M13.172 27.444C6.327 27.444 0.851 25.557 0.851 21.45C0.851 21.006 0.925 20.525 1.073 20.007L1.517 18.379H11.174L11.026 18.934C10.989 19.119 10.952 19.304 10.952 19.452C10.952 20.784 12.469 21.709 14.726 21.709C17.538 21.709 19.092 20.747 19.573 19.415L19.684 19.119C19.869 18.675 19.943 18.305 19.943 18.009C19.943 17.195 19.018 16.936 17.575 16.899L11.692 16.714C5.735 16.529 3.256 15.53 3.256 12.533C3.256 11.904 3.367 11.201 3.589 10.387L4.107 8.463C5.624 2.802 12.987 0.471 20.128 0.471C26.973 0.471 32.449 2.358 32.449 6.465C32.449 6.909 32.375 7.39 32.227 7.908L31.783 9.536H22.126L22.274 8.981C22.348 8.722 22.385 8.463 22.385 8.241C22.385 6.872 21.127 6.206 18.574 6.206C15.984 6.206 14.171 7.094 13.727 8.5L13.579 8.981C13.468 9.314 13.431 9.61 13.431 9.869C13.431 10.905 14.319 11.164 15.725 11.201L21.682 11.386C27.676 11.571 30.081 12.644 30.081 15.382C30.081 16.048 29.97 16.751 29.748 17.565L29.23 19.452C27.676 25.113 20.313 27.444 13.172 27.444Z" fill="black"/>
</svg>
